# xmcd
#
# Track frame offsets:
# 150
# 26287
# 48069
# 79092
# 104760
# 128982
# 145029
# 162577
# 179241
# 212923
# 234181
# 260177
#
# Disc length: 3737 seconds
#
#
# Revision: 2
# Processed by: cddbd v1.5.1PL0 Copyright (c) Steve Scherf et al.
# Submitted via: FreeRIP 2.60 
#
DISCID=ac0e970c
DTITLE=Mighty Sam McClain - Journey
DYEAR=1998
DGENRE=Blues
TTITLE0=I'm a Man
TTITLE1=Thank You
TTITLE2=Change Is Gonna Come
TTITLE3=New Man In Town
TTITLE4=No More Tears
TTITLE5=Mr. So and So
TTITLE6=Time Is Running Out
TTITLE7=I'm Yours
TTITLE8=Other Side Of The Tracks
TTITLE9=Prove It To Me
TTITLE10=Hanging On The Cross
TTITLE11=Somebody Help Me
EXTD=
EXTT0=
EXTT1=
EXTT2=
EXTT3=
EXTT4=
EXTT5=
EXTT6=
EXTT7=
EXTT8=
EXTT9=
EXTT10=
EXTT11=
PLAYORDER=
